<svg width="153" height="44" viewBox="0 0 153 44" fill="none" xmlns="http://www.w3.org/2000/svg">
<path d="M21.694 44C33.6753 44 43.3881 34.1503 43.3881 22C43.3881 9.84974 33.6753 0 21.694 0C9.71275 0 0 9.84974 0 22C0 34.1503 9.71275 44 21.694 44Z" fill="#ED1849"/>
<path d="M19.8465 16.8826C19.8465 16.9271 18.7356 13.7206 15.2746 13.8097C14.9755 13.8097 14.8473 13.9433 14.9327 14.2996C15.5309 17.2834 16.9837 19.5546 19.8465 20.668C20.2738 20.8461 20.6157 21.0243 20.9148 21.3806C21.8975 22.5385 22.8803 23.6963 23.9485 24.9433C24.1194 24.5425 24.2049 24.2308 24.3758 23.9636C25.1449 22.2267 27.025 21.4251 28.6914 22.004C30.4006 22.583 31.4261 24.4534 31.0842 26.2348C30.7851 27.7044 29.9733 28.7287 28.606 29.1295C27.1532 29.5749 25.8713 29.1295 24.8458 27.9716C23.0512 25.9231 21.2993 23.7854 19.5474 21.7368C17.881 19.8219 15.2318 19.2874 13.0527 20.4453C10.8308 21.6478 9.63435 24.2308 10.1898 26.7692C11.0871 30.9555 15.6591 32.6478 18.9492 29.9757C19.3765 29.6194 19.6329 29.5304 19.9747 30.1093C20.7011 31.2672 21.9403 31.6235 23.3503 31.0891C21.983 29.4858 20.5729 27.8826 19.1629 26.1903C18.992 26.5911 18.9065 26.9028 18.7783 27.17C18.0947 28.5951 16.5992 29.5304 15.2318 29.3077C13.5227 29.0405 12.2835 27.8826 12.0272 26.2348C11.7708 24.587 12.4972 22.9838 13.9072 22.2267C15.2746 21.5142 16.941 21.7814 18.0519 22.9393C18.4792 23.3846 18.9065 23.8745 19.2911 24.3198C20.7011 25.9676 22.0684 27.6154 23.4785 29.2631C25.1876 31.2672 27.7514 31.8016 29.9733 30.7328C32.1952 29.6194 33.3916 27.2146 33.007 24.587C32.4088 20.4008 27.7941 18.5304 24.2903 21.0688C23.5212 21.6478 23.3076 21.5587 23.0085 20.6235C21.9403 17.3279 24.034 13.5425 27.2814 12.83C27.7514 12.7409 28.3923 12.3846 28.6487 12.7409C28.9478 13.1417 28.4778 13.7206 28.2641 14.166C27.5377 15.6802 26.1704 16.8826 24.9313 17.0607C25.1022 15.8583 25.7859 14.9231 26.4268 13.9878C24.7176 14.7895 23.8631 16.2146 23.5212 18.0405C23.3076 19.1093 23.4358 19.1984 24.3758 18.9757C27.8796 18.1295 30.3151 15.2793 30.4433 11.8057C30.4433 11.4494 30.4433 11.1822 30.016 11.1376C26.9823 10.6032 24.504 11.6275 22.6239 14.166C22.3248 14.6113 22.0684 15.1012 21.7693 15.5466C19.8465 13.587 18.8211 13.0972 17.1546 13.2753C20.1456 15.1457 21.3848 17.1053 21.0002 19.2874C18.9492 18.7976 17.1974 17.1943 16.8128 15.3684C17.6246 15.3684 19.0347 15.8138 19.8465 16.8826Z" fill="white"/>
<path d="M57.8979 30.6777H55.7814V29.4864C54.8501 30.5012 53.6225 30.9865 52.1409 30.9865C50.7863 30.9865 49.601 30.4571 48.6274 29.4423C47.6537 28.3834 47.1458 27.0598 47.1458 25.4715C47.1458 23.8832 47.6537 22.5154 48.6274 21.5007C49.601 20.4418 50.7863 19.9124 52.1409 19.9124C53.6648 19.9124 54.8924 20.3977 55.7814 21.4124V20.2212H57.8979V30.6777ZM54.7654 28.0305C55.4427 27.3687 55.7814 26.4863 55.7814 25.4274C55.7814 24.3685 55.4427 23.4861 54.7654 22.8243C54.0881 22.1625 53.3261 21.8095 52.4372 21.8095C51.5059 21.8095 50.7016 22.1184 50.0666 22.7802C49.4317 23.442 49.1353 24.3244 49.1353 25.3833C49.1353 26.4863 49.4317 27.3245 50.0666 27.9864C50.7016 28.6482 51.4636 28.957 52.4372 28.957C53.3261 29.0452 54.1304 28.6923 54.7654 28.0305Z" fill="#4368B2"/>
<path d="M70.1742 29.7512C70.1742 31.2954 69.7086 32.5308 68.7773 33.4132C67.846 34.2956 66.576 34.7368 64.9675 34.7368C62.5546 34.7368 60.9036 33.8985 60.057 32.222L61.7926 30.8984C62.1736 31.5602 62.6392 32.0014 63.1049 32.3102C63.5705 32.619 64.2055 32.7514 64.9675 32.7514C65.9411 32.7514 66.703 32.4426 67.2534 31.869C67.8037 31.2954 68.1 30.5013 68.1 29.4865V28.8247C67.2957 29.7071 66.1527 30.1483 64.6288 30.1483C63.3165 30.1483 62.1736 29.663 61.1576 28.6482C60.184 27.6776 59.676 26.4422 59.676 25.0304C59.676 23.6185 60.184 22.3832 61.1576 21.4125C62.1312 20.4419 63.2742 19.9565 64.6288 19.9565C66.1527 19.9565 67.2957 20.3977 68.1 21.2801V20.2213H70.1319V29.7512H70.1742ZM67.1687 27.2805C67.8037 26.6628 68.1 25.9128 68.1 24.9863C68.1 24.0597 67.8037 23.2656 67.1687 22.692C66.5337 22.1184 65.8141 21.8096 64.9675 21.8096C64.0362 21.8096 63.2742 22.1184 62.6816 22.692C62.0889 23.2656 61.7503 24.0597 61.7503 25.0304C61.7503 25.9569 62.0466 26.7511 62.6816 27.3246C63.3165 27.8982 64.0785 28.207 64.9675 28.207C65.8141 28.1629 66.576 27.8541 67.1687 27.2805Z" fill="#4368B2"/>
<path d="M79.4871 20.1332L79.3601 22.2509C79.2331 22.2509 79.0638 22.2509 78.7675 22.2509C77.5399 22.2509 76.5662 22.6921 75.9313 23.5304C75.2963 24.3687 74.9576 25.5158 74.9576 27.0159V30.722H72.8411V20.1773H74.9576V22.4274C75.8889 20.8391 77.1589 20.0449 78.8098 20.0449C79.1061 20.0449 79.3178 20.089 79.4871 20.1332Z" fill="#4368B2"/>
<path d="M81.011 30.6776V20.177H83.1276V30.6776H81.011Z" fill="#4368B2"/>
<path d="M95.2342 21.4567C96.2078 22.5155 96.7158 23.8391 96.7158 25.4275C96.7158 27.0599 96.2078 28.3835 95.2342 29.3983C94.2606 30.4572 93.0753 30.9425 91.7207 30.9425C90.1968 30.9425 88.9692 30.4572 88.0802 29.4424V30.6337H85.9636V15.4563H88.0802V21.4125C89.0115 20.3978 90.2391 19.9124 91.7207 19.9124C93.0753 19.8683 94.2606 20.3978 95.2342 21.4567ZM93.7103 28.0306C94.3452 27.3688 94.6416 26.4864 94.6416 25.4275C94.6416 24.3245 94.3452 23.4862 93.7103 22.8244C93.0753 22.1626 92.3133 21.8537 91.3397 21.8537C90.4508 21.8537 89.6888 22.2067 89.0115 22.8685C88.3342 23.5303 87.9955 24.4127 87.9955 25.4716C87.9955 26.5305 88.3342 27.4129 89.0115 28.0747C89.6888 28.7365 90.4508 29.0895 91.3397 29.0895C92.3133 29.0453 93.1176 28.6924 93.7103 28.0306Z" fill="#4368B2"/>
<path d="M108.399 30.6777H106.283V29.4864C105.351 30.5012 104.124 30.9865 102.642 30.9865C101.288 30.9865 100.102 30.4571 99.1287 29.4423C98.1551 28.3834 97.6471 27.0598 97.6471 25.4715C97.6471 23.8832 98.1551 22.5154 99.1287 21.5007C100.102 20.4418 101.288 19.9124 102.642 19.9124C104.166 19.9124 105.394 20.3977 106.283 21.4124V20.2212H108.399V30.6777ZM105.267 28.0305C105.944 27.3687 106.283 26.4863 106.283 25.4274C106.283 24.3685 105.944 23.4861 105.267 22.8243C104.589 22.1625 103.827 21.8095 102.939 21.8095C102.007 21.8095 101.203 22.1184 100.568 22.7802C99.933 23.442 99.6367 24.3244 99.6367 25.3833C99.6367 26.4863 99.933 27.3245 100.568 27.9864C101.203 28.6482 101.965 28.957 102.939 28.957C103.827 29.0452 104.589 28.6923 105.267 28.0305Z" fill="#4368B2"/>
<path d="M119.109 30.6776H110.262V29.2216L116.273 21.9859H110.431V20.177H118.855V21.6771L112.844 28.8687H119.067V30.6776H119.109Z" fill="#4368B2"/>
<path d="M130.581 30.6777H128.464V29.4864C127.533 30.5012 126.306 30.9865 124.824 30.9865C123.469 30.9865 122.284 30.4571 121.31 29.4423C120.337 28.3834 119.829 27.0598 119.829 25.4715C119.829 23.8832 120.337 22.5154 121.31 21.5007C122.284 20.4418 123.469 19.9124 124.824 19.9124C126.348 19.9124 127.575 20.3977 128.464 21.4124V20.2212H130.581V30.6777ZM127.448 28.0305C128.126 27.3687 128.464 26.4863 128.464 25.4274C128.464 24.3685 128.126 23.4861 127.448 22.8243C126.771 22.1625 126.009 21.8095 125.12 21.8095C124.189 21.8095 123.385 22.1184 122.75 22.7802C122.115 23.442 121.818 24.3244 121.818 25.3833C121.818 26.4863 122.115 27.3245 122.75 27.9864C123.385 28.6482 124.147 28.957 125.12 28.957C126.009 29.0452 126.814 28.6923 127.448 28.0305Z" fill="#4368B2"/>
<path d="M143.111 30.6777H140.995V29.4864C140.063 30.5012 138.836 30.9865 137.354 30.9865C136 30.9865 134.814 30.4571 133.841 29.4423C132.867 28.3834 132.359 27.0598 132.359 25.4715C132.359 23.8832 132.867 22.5154 133.841 21.5007C134.814 20.4418 136 19.9124 137.354 19.9124C138.878 19.9124 140.106 20.3977 140.995 21.4124V20.2212H143.111V30.6777ZM139.979 28.0305C140.656 27.3687 140.995 26.4863 140.995 25.4274C140.995 24.3685 140.656 23.4861 139.979 22.8243C139.301 22.1625 138.54 21.8095 137.651 21.8095C136.719 21.8095 135.915 22.1184 135.28 22.7802C134.645 23.442 134.349 24.3244 134.349 25.3833C134.349 26.4863 134.645 27.3245 135.28 27.9864C135.915 28.6482 136.677 28.957 137.651 28.957C138.54 29.0452 139.344 28.6923 139.979 28.0305Z" fill="#4368B2"/>
<path d="M152.466 20.1332L152.339 22.2509C152.212 22.2509 152.043 22.2509 151.747 22.2509C150.519 22.2509 149.546 22.6921 148.911 23.5304C148.276 24.3687 147.937 25.5158 147.937 27.0159V30.722H145.82V20.1773H147.937V22.4274C148.868 20.8391 150.138 20.0449 151.789 20.0449C152.043 20.0449 152.255 20.089 152.466 20.1332Z" fill="#4368B2"/>
<path d="M83.0005 16.6476C83.2545 16.9123 83.3815 17.2211 83.3815 17.6182C83.3815 18.0153 83.2545 18.3241 83.0005 18.5889C82.7465 18.8536 82.4078 18.9859 82.0269 18.9859C81.6459 18.9859 81.3072 18.8536 81.0532 18.5889C80.7992 18.3241 80.6722 18.0153 80.6722 17.6182C80.6722 17.2211 80.7992 16.9123 81.0532 16.6476C81.3072 16.3828 81.6459 16.2505 82.0269 16.2505C82.4078 16.2505 82.7465 16.3828 83.0005 16.6476Z" fill="#ED1849"/>
</svg>
