<svg xmlns="http://www.w3.org/2000/svg" viewBox="0 0 24 24"><path fill="#999BCD" d="M12 6C5.271 6 0 8.636 0 12s5.271 6 12 6 12-2.636 12-6-5.271-6-12-6z"/><path fill="#FFF" d="M12 6.25c4.703 0 8.722 1.23 10.79 3.08C20.856 7.344 16.797 6 12 6S3.144 7.343 1.21 9.33C3.278 7.48 7.297 6.25 12 6.25z" opacity=".2"/><path fill="#010101" d="M12 17.75c-4.703 0-8.722-1.23-10.79-3.08C3.144 16.656 7.203 18 12 18s8.856-1.343 10.79-3.33c-2.068 1.85-6.087 3.08-10.79 3.08z" opacity=".1"/><path fill="#FFF" d="M9.579 9.764A1.975 1.975 0 0 0 8.013 9H5.526l-1.75 7h1.031l.5-2h1.755c1.321 0 2.469-.896 2.79-2.178l.088-.354a1.975 1.975 0 0 0-.361-1.704zm-.609 1.462l-.088.353A1.874 1.874 0 0 1 7.062 13H5.557l.75-3h1.706a.98.98 0 0 1 .778.38c.188.24.253.55.18.846zM20.079 9.764A1.975 1.975 0 0 0 18.513 9h-2.487l-1.75 7h1.031l.5-2h1.755c1.321 0 2.469-.896 2.79-2.178l.088-.354a1.975 1.975 0 0 0-.361-1.704zm-.609 1.462l-.088.353A1.874 1.874 0 0 1 17.562 13h-1.505l.75-3h1.706a.98.98 0 0 1 .778.38c.188.24.253.55.18.846zM14.695 9.61A1.65 1.65 0 0 0 13.411 9h-1.585l.364-2h-1.016L9.9 14h1.016l.727-4h1.767c.198 0 .383.088.508.242s.174.353.139.527L13.245 14h1.031l.756-3.008a1.652 1.652 0 0 0-.337-1.382z"/><linearGradient id="a" x1="1.866" x2="22.134" y1="7.274" y2="16.726" gradientUnits="userSpaceOnUse"><stop offset="0" stop-color="#FFF" stop-opacity=".2"/><stop offset="1" stop-color="#FFF" stop-opacity="0"/></linearGradient><path fill="url(#a)" d="M12 6C5.271 6 0 8.636 0 12s5.271 6 12 6 12-2.636 12-6-5.271-6-12-6z"/></svg>